<svg xmlns="http://www.w3.org/2000/svg" viewBox="0 0 800 6112"><svg version="1.1" id="Layer_1" xmlns="http://www.w3.org/2000/svg" xmlns:xlink="http://www.w3.org/1999/xlink" viewBox="0 0 512 512" xml:space="preserve" height="512" width="512" y="0"><rect x="10.199" y="25.753" style="fill:#13B7DC;" width="491.602" height="309.066" /><path d="M501.801,15.557H10.199C4.566,15.557,0,20.123,0,25.756v309.066c0,5.633,4.566,10.199,10.199,10.199h35.435v141.222  c0,5.633,4.566,10.199,10.199,10.199s10.199-4.566,10.199-10.199V446.66h379.936v39.584c0,5.633,4.566,10.199,10.199,10.199  s10.199-4.566,10.199-10.199V345.022h35.434c5.633,0,10.199-4.566,10.199-10.199V25.756C512,20.123,507.434,15.557,501.801,15.557z   M445.967,426.262H66.033v-31.458h301.978c5.633,0,10.199-4.566,10.199-10.199s-4.566-10.199-10.199-10.199H66.033v-29.384h379.936  v81.241H445.967z M491.602,324.623H20.398V35.955h471.203V324.623z" /><path d="M407.421,394.804h8.297c5.633,0,10.199-4.566,10.199-10.199s-4.566-10.199-10.199-10.199h-8.297  c-5.633,0-10.199,4.566-10.199,10.199S401.788,394.804,407.421,394.804z" /><path d="M95.4,290.578h107.997c5.633,0,10.199-4.566,10.199-10.199V80.199c0-5.633-4.566-10.199-10.199-10.199H95.4  c-5.633,0-10.199,4.566-10.199,10.199v200.18C85.201,286.012,89.767,290.578,95.4,290.578z M105.599,270.18v-79.691h87.599v79.691  H105.599z M193.198,90.399v79.691h-87.599V90.399H193.198z" /><path d="M308.602,290.578H416.6c5.633,0,10.199-4.566,10.199-10.199V80.199c0-5.633-4.566-10.199-10.199-10.199H308.602  c-5.633,0-10.199,4.566-10.199,10.199v200.18C298.403,286.012,302.969,290.578,308.602,290.578z M318.802,270.18v-79.691h87.599  v79.691H318.802z M406.401,90.399v79.691h-87.599V90.399H406.401z" /><path d="M256,141.145c5.633,0,10.199-4.566,10.199-10.199v-11.172c0-5.633-4.566-10.199-10.199-10.199s-10.199,4.566-10.199,10.199  v11.172C245.801,136.579,250.367,141.145,256,141.145z" /><path d="M256,247.281c5.633,0,10.199-4.566,10.199-10.199v-11.172c0-5.633-4.566-10.199-10.199-10.199s-10.199,4.566-10.199,10.199  v11.172C245.801,242.715,250.367,247.281,256,247.281z" /></svg><svg version="1.1" id="Layer_1" xmlns="http://www.w3.org/2000/svg" xmlns:xlink="http://www.w3.org/1999/xlink" viewBox="0 0 512 512" xml:space="preserve" width="800" height="800" fill="#000000" transform="rotate(-45)" y="512"><g id="SVGRepo_bgCarrier" stroke-width="0" /><g id="SVGRepo_tracerCarrier" stroke-linecap="round" stroke-linejoin="round" /><g id="SVGRepo_iconCarrier"> <polyline style="fill:#A2D8F5;" points="503.652,189.568 503.652,431.814 8.348,431.814 8.348,80.186 503.652,80.186 503.652,153.82 " /> <polyline style="fill:#7FC7EF;" points="503.652,189.568 503.652,431.814 256,431.814 256,80.186 503.652,80.186 503.652,153.82 " /> <g> <rect x="94.486" y="111.816" style="fill:#FFA81E;" width="47.426" height="42.005" /> <rect x="141.913" y="111.816" style="fill:#FFA81E;" width="47.426" height="42.005" /> <rect x="322.66" y="111.816" style="fill:#FFA81E;" width="47.426" height="42.005" /> <rect x="370.087" y="111.816" style="fill:#FFA81E;" width="47.426" height="42.005" /> </g> <rect x="287.265" y="236.833" style="fill:#FFFFFF;" width="158.052" height="142.826" /> <rect x="363.921" y="236.833" style="fill:#F5F5F5;" width="81.397" height="142.826" /> <rect x="67.172" y="236.833" style="fill:#FFFFFF;" width="158.052" height="142.826" /> <rect x="143.839" y="236.833" style="fill:#F5F5F5;" width="81.397" height="142.826" /> <g> <path style="fill:#423F40;" d="M503.652,71.838H8.348C3.738,71.838,0,75.576,0,80.186v351.628c0,4.61,3.738,8.348,8.348,8.348 h495.304c4.61,0,8.348-3.738,8.348-8.348V80.186C512,75.576,508.262,71.838,503.652,71.838z M495.304,181.22H449.67 c-4.61,0-8.348,3.738-8.348,8.348s3.738,8.348,8.348,8.348h45.635v225.55H16.696v-225.55h377.104c4.61,0,8.348-3.738,8.348-8.348 s-3.738-8.348-8.348-8.348H16.696V88.534h478.609V181.22z" /> <path style="fill:#423F40;" d="M94.487,162.168h47.426h47.425c4.61,0,8.348-3.738,8.348-8.348v-42.005 c0-4.61-3.738-8.348-8.348-8.348h-47.425H94.487c-4.61,0-8.348,3.738-8.348,8.348v42.005 C86.14,158.431,89.877,162.168,94.487,162.168z M180.99,145.473h-30.729v-25.309h30.729V145.473z M102.835,120.162h30.73v25.309 h-30.73V120.162z" /> <path style="fill:#423F40;" d="M322.661,162.168h47.426h47.425c4.61,0,8.348-3.738,8.348-8.348v-42.005 c0-4.61-3.738-8.348-8.348-8.348h-47.425h-47.426c-4.61,0-8.348,3.738-8.348,8.348v42.005 C314.313,158.431,318.051,162.168,322.661,162.168z M409.164,145.473h-30.729v-25.309h30.729V145.473z M331.009,120.162h30.73 v25.309h-30.73V120.162z" /> <path style="fill:#423F40;" d="M278.424,236.828v82.424c0,4.61,3.738,8.348,8.348,8.348s8.348-3.738,8.348-8.348v-74.076h141.357 v126.132H295.12v-16.44c0-4.61-3.738-8.348-8.348-8.348s-8.348,3.738-8.348,8.348v24.787c0,4.61,3.738,8.348,8.348,8.348h158.052 c4.61,0,8.348-3.738,8.348-8.348V236.828c0-4.61-3.738-8.348-8.348-8.348H286.772C282.162,228.48,278.424,232.218,278.424,236.828z " /> <path style="fill:#423F40;" d="M339.116,332.386c-4.714,0-8.726-2.002-8.726-5.809c0-4.607-3.811-5.709-8.124-5.709 c-5.015,0-7.323,1.503-7.323,6.31c0,8.312,6.721,18.829,23.672,18.829c14.444,0,25.578-6.41,25.578-23.637V295.83 c0-17.227-10.833-23.637-24.675-23.637c-13.842,0-24.575,6.41-24.575,23.637v0.902c0,16.025,9.629,21.032,21.064,21.032 c4.815,0,9.328-0.902,12.538-4.407v9.013C348.545,329.282,345.035,332.386,339.116,332.386z M339.617,305.746 c-5.718,0-9.028-2.805-9.028-10.115v-0.902c0-6.911,3.31-9.915,8.928-9.915s9.028,3.004,9.028,9.915v1.803 C348.545,303.142,345.035,305.746,339.617,305.746z" /> <path style="fill:#423F40;" d="M370.412,330.884v9.715c0,2.905,4.011,4.807,6.821,4.807h35.709c2.508,0,4.715-3.305,4.715-6.91 c0-3.606-2.206-6.711-4.715-6.711h-26.28v-0.902c0-9.114,30.995-16.225,30.995-37.958c0-13.421-11.736-20.732-23.372-20.732 c-11.434,0-22.669,7.011-22.669,19.229c0,6.31,3.01,8.113,7.021,8.113c5.116,0,8.225-2.805,8.225-5.709 c0-5.508,3.511-7.512,7.523-7.512c5.618,0,7.623,3.906,7.623,7.111C402.008,306.147,370.412,315.16,370.412,330.884z" /> <path style="fill:#423F40;" d="M225.228,228.48H67.176c-4.61,0-8.348,3.738-8.348,8.348v142.828c0,4.61,3.738,8.348,8.348,8.348 h158.052c4.61,0,8.348-3.738,8.348-8.348v-24.787c0-4.61-3.738-8.348-8.348-8.348c-4.61,0-8.348,3.738-8.348,8.348v16.44H75.523 V245.176H216.88v74.076c0,4.61,3.738,8.348,8.348,8.348c4.61,0,8.348-3.738,8.348-8.348v-82.424 C233.576,232.218,229.838,228.48,225.228,228.48z" /> <path style="fill:#423F40;" d="M141.587,292.926c0-13.421-11.736-20.732-23.372-20.732c-11.434,0-22.669,7.011-22.669,19.229 c0,6.31,3.01,8.113,7.021,8.113c5.116,0,8.225-2.805,8.225-5.709c0-5.508,3.511-7.512,7.523-7.512c5.618,0,7.623,3.906,7.623,7.111 c0,12.72-31.596,21.733-31.596,37.457v9.715c0,2.905,4.011,4.807,6.821,4.807h35.709c2.508,0,4.715-3.305,4.715-6.91 c0-3.606-2.207-6.711-4.715-6.711h-26.28v-0.902C110.592,321.771,141.587,314.66,141.587,292.926z" /> <path style="fill:#423F40;" d="M146.603,324.174v1.202c0,14.923,10.833,20.631,24.675,20.631s24.575-5.709,24.575-20.631v-1.202 c0-10.316-4.915-16.325-12.337-18.828c5.918-2.003,9.931-7.011,9.931-15.324c0-12.52-9.228-17.828-22.167-17.828 c-12.939,0-22.168,5.308-22.168,17.828c0,8.313,4.013,13.321,9.931,15.324C151.619,307.849,146.603,313.858,146.603,324.174z M171.278,284.714c4.513,0,7.121,2.203,7.121,7.31c0,5.208-2.608,7.211-7.121,7.211c-4.515,0-7.121-2.002-7.121-7.211 C164.157,286.917,166.765,284.714,171.278,284.714z M162.251,321.27c0-6.51,3.41-9.514,9.028-9.514 c5.616,0,8.928,3.004,8.928,9.514v2.203c0,6.711-3.21,10.016-8.928,10.016c-5.517,0-9.028-3.105-9.028-10.016V321.27z" /> </g> </g></svg><svg fill="#000000" height="800" width="800" version="1.1" id="Layer_1" xmlns="http://www.w3.org/2000/svg" xmlns:xlink="http://www.w3.org/1999/xlink" viewBox="0 0 481.825 481.825" xml:space="preserve" y="1312"><g transform="translate(0 -540.36)">	<g>		<g>			<path d="M240.212,724.085L240.212,724.085c18,0,32.6-14.5,32.6-32.3s-14.6-32.3-32.6-32.3s-32.6,14.5-32.6,32.3     S222.212,724.085,240.212,724.085z M240.212,674.385c9.7,0,17.6,7.7,17.6,17.3c0,9.5-7.9,17.3-17.6,17.3s-17.6-7.7-17.6-17.3     C222.613,682.185,230.513,674.385,240.212,674.385z" />			<path d="M290.413,724.185c4.1,0,7.5-3.4,7.5-7.5v-4.3l23.2,11c1,0.5,2.1,0.7,3.2,0.7c2.8,0,5.5-1.6,6.7-4c1.8-3.7,0.2-8.2-3.5-10     l-20.2-9.6l20.4-10.5c2.5-1.3,4.1-3.9,4.1-6.7v-16.2c0-4.1-3.4-7.5-7.5-7.5h-33.9c-4.1,0-7.5,3.4-7.5,7.5v33.5v16.1     C282.913,720.785,286.312,724.185,290.413,724.185z M297.913,674.385h18.9v4.1l-18.9,9.7V674.385z" />			<polygon points="324.313,724.085 324.312,724.085 324.312,724.085    " />			<path d="M180.613,723.685c4.3,0,8.6-0.9,12.6-3.1c3.7-1.8,5.2-6.3,3.4-10s-6.3-5.2-10-3.4c-6.3,3.1-13.8,1-18.2-5.1     c-0.1-0.2-0.3-0.3-0.4-0.5c-5.1-5.9-5.1-14.1,0-20c0.1-0.1,0.3-0.3,0.4-0.5c4.3-6.1,12.1-8.6,18.9-6.1c3.8,1.5,8.2-0.5,9.6-4.4     c1.5-3.8-0.5-8.2-4.4-9.6c-12.9-4.8-27.7-0.2-36.1,11.1c-9.7,11.4-9.7,27.7,0,39.1     C162.313,719.285,171.413,723.685,180.613,723.685z" />			<path d="M383.413,674.485c4.1,0,7.5-3.4,7.5-7.5s-3.4-7.5-7.5-7.5h-33.9c-4.1,0-7.5,3.4-7.5,7.5v49.7c0,4.1,3.4,7.5,7.5,7.5h33.9     c4.1,0,7.5-3.4,7.5-7.5s-3.4-7.6-7.5-7.6v0h-26.4v-9.8h8.8c4.1,0,7.5-3.4,7.5-7.5s-3.4-7.5-7.5-7.5h-8.8v-9.8H383.413z" />			<path d="M90.813,716.585c0,4.1,3.4,7.5,7.5,7.5h33.9c2.8,0,5.3-1.6,6.6-4c1.3-2.4,1.2-5.4-0.4-7.7l-25.9-38h19.7     c4.1,0,7.5-3.4,7.5-7.5s-3.4-7.5-7.5-7.5h-33.9c-2.7,0-5.3,1.5-6.6,4c-1.3,2.4-1.2,5.4,0.4,7.7l25.9,38h-19.7     C94.212,709.085,90.813,712.485,90.813,716.585z" />			<path d="M90.813,972.485h300.1v-213.8h-300.1V972.485z M340.712,773.785h35.2v50.8h-35.2V773.785z M340.613,839.585h35.2v52.1     h-35.2V839.585z M340.613,906.685h35.2v50.8h-35.2V906.685z M290.413,773.685h35.2v50.8h-35.2V773.685z M290.413,839.585h35.2     v52.1h-35.2V839.585z M290.413,906.685h35.2v50.8h-35.2V906.685z M156.013,773.785h119.4v50.8h-119.4V773.785z M156.013,839.585     h119.4v52.1h-119.4V839.585z M156.013,906.685h119.4v50.8h-119.4V906.685z M105.813,773.685h35.2v50.8h-35.2V773.685z      M105.813,839.585h35.2v52.1h-35.2V839.585z M105.813,906.685h35.2v50.8h-35.2V906.685z" />			<path d="M323.712,593.485v-17.4h-35.1c-3.4-12.4-11.6-22.8-23.3-29.2c-14.9-8.7-34-8.7-48.8,0c-11.7,6.4-19.9,16.8-23.3,29.2     h-35.1v17.4h-108.7l1.3,428.7h381.7v-428.7H323.712z M223.613,560.085l0.3-0.2c10.3-6.1,23.5-6.1,33.8,0l0.3,0.2     c6.8,3.7,11.9,9.3,14.7,16h-63.8C211.812,569.385,216.913,563.685,223.613,560.085z M173.012,591.085h135.7v18.5h-135.7V591.085z      M65.512,1007.185l-1.2-398.7h93.6v16.2h165.7v-16.2h93.6v398.7H65.512z" />		</g>	</g></g></svg><svg version="1.1" id="Capa_1" xmlns="http://www.w3.org/2000/svg" xmlns:xlink="http://www.w3.org/1999/xlink" viewBox="0 0 512 512" xml:space="preserve" width="800" height="800" fill="#000000" transform="rotate(45)matrix(-1, 0, 0, 1, 0, 0)" y="2112"><g id="SVGRepo_bgCarrier" stroke-width="0" /><g id="SVGRepo_tracerCarrier" stroke-linecap="round" stroke-linejoin="round" /><g id="SVGRepo_iconCarrier"> <g> <path style="fill:#003B54;" d="M496,424H16c-8.836,0-16-7.164-16-16V104c0-8.836,7.164-16,16-16h480c8.836,0,16,7.164,16,16v304 C512,416.836,504.836,424,496,424z M32,392h448V120H32V392z" /> <g> <rect x="64" y="152" style="fill:#F69348;" width="376" height="208" /> </g> <path style="fill:#FFFFFF;" d="M32,120v272h448V120H32z M440,360H64V152h376V360z" /> <g> <path style="fill:#003953;" d="M256,216c-8.836,0-16,7.172-16,16c0,8.844,7.164,16,16,16c8.836,0,16-7.156,16-16 C272,223.172,264.836,216,256,216z" /> </g> <g> <path style="fill:#003953;" d="M256,264c-8.836,0-16,7.172-16,16c0,8.844,7.164,16,16,16c8.836,0,16-7.156,16-16 C272,271.172,264.836,264,256,264z" /> </g> <g> <path style="fill:#FFFFFF;" d="M352,336c-26.469,0-48-21.531-48-48v-64c0-26.469,21.531-48,48-48c26.469,0,48,21.531,48,48v64 C400,314.469,378.469,336,352,336z M352,208c-8.82,0-16,7.176-16,16v64c0,8.824,7.18,16,16,16s16-7.176,16-16v-64 C368,215.176,360.82,208,352,208z" /> </g> <g> <path style="fill:#FFFFFF;" d="M160,336c-26.469,0-48-21.531-48-48v-64c0-26.469,21.531-48,48-48c26.469,0,48,21.531,48,48v64 C208,314.469,186.469,336,160,336z M160,208c-8.82,0-16,7.176-16,16v64c0,8.824,7.18,16,16,16s16-7.176,16-16v-64 C176,215.176,168.82,208,160,208z" /> </g> </g> </g></svg><svg version="1.1" id="Layer_1" xmlns="http://www.w3.org/2000/svg" xmlns:xlink="http://www.w3.org/1999/xlink" viewBox="0 0 512 512" xml:space="preserve" width="800" height="800" fill="#000000" transform="matrix(1, 0, 0, -1, 0, 0)" y="2912"><g id="SVGRepo_bgCarrier" stroke-width="0" /><g id="SVGRepo_tracerCarrier" stroke-linecap="round" stroke-linejoin="round" /><g id="SVGRepo_iconCarrier"> <rect x="218.55" y="353.635" style="fill:#485360;" width="74.101" height="143.071" /> <rect x="218.55" y="353.635" style="fill:#364351;" width="18.141" height="143.071" /> <path style="fill:#BAB0A8;" d="M485.465,1.042h-59.539h-27.025H26.534C11.903,1.042,0,12.944,0,27.576v328.573 c0,14.631,11.903,26.535,26.534,26.535h458.931c14.631,0,26.535-11.904,26.535-26.535V27.576 C512,12.944,500.096,1.042,485.465,1.042z" /> <path style="fill:#B29D94;" d="M17.77,356.149V27.576c0-14.631,11.903-26.534,26.534-26.534h-17.77C11.903,1.042,0,12.944,0,27.576 v328.573c0,14.631,11.903,26.535,26.534,26.535h17.77C29.673,382.683,17.77,370.78,17.77,356.149z" /> <path style="fill:#F44321;" d="M484.234,341.59c0,7.361-5.967,13.328-13.328,13.328H41.093c-7.36,0-13.328-5.966-13.328-13.328 V42.135c0-7.361,5.967-13.328,13.328-13.328h429.813c7.36,0,13.328,5.966,13.328,13.328V341.59z" /> <path style="fill:#C6281C;" d="M45.536,341.59V42.135c0-7.361,5.967-13.328,13.328-13.328h-17.77 c-7.36,0-13.328,5.966-13.328,13.328v299.456c0,7.361,5.967,13.328,13.328,13.328h17.77 C51.503,354.917,45.536,348.951,45.536,341.59z" /> <path style="fill:#596570;" d="M332.328,482.455H301.23h-14.015h-6.406h-0.071h-6.406h-6.368h-6.406h-0.071h-5.369h-1.037h-5.368 h-0.072h-2.229h-4.177h-6.367h-6.406h-0.072h-2.229h-4.177h-1.805h-5.864H215.7h-5.731h-12.907h-5.982h-6.478h-5.731 c-7.872,0-14.252,6.381-14.252,14.252c0,7.871,6.379,14.252,14.252,14.252h5.731h6.478h5.982h12.907h5.731h0.614h2.532h1.805h4.177 h2.229h0.072h6.406h6.367h4.177h2.229h0.072h5.368h1.037h5.369h0.071h6.406H271h6.406h0.071h6.406h29.412h19.033 c7.87,0,14.249-6.381,14.249-14.252C346.577,488.836,340.198,482.455,332.328,482.455z" /> <path style="fill:#364351;" d="M182.76,496.707c0-7.871,6.379-14.252,14.252-14.252h-5.932h-6.478h-5.731 c-7.872,0-14.252,6.381-14.252,14.252c0,7.871,6.379,14.252,14.252,14.252h5.731h6.478h5.932 C189.139,510.959,182.76,504.578,182.76,496.707z" /> <g> <path style="fill:#FFFFFF;" d="M202.842,155.104c4.601,0,8.33-3.728,8.33-8.33v-22.213c0-4.601-3.728-8.33-8.33-8.33 c-4.601,0-8.33,3.728-8.33,8.33v22.213C194.512,151.375,198.242,155.104,202.842,155.104z" /> <path style="fill:#FFFFFF;" d="M202.842,205.082c4.601,0,8.33-3.728,8.33-8.33V174.54c0-4.601-3.728-8.33-8.33-8.33 c-4.601,0-8.33,3.728-8.33,8.33v22.213C194.512,201.354,198.242,205.082,202.842,205.082z" /> <path style="fill:#FFFFFF;" d="M202.842,255.06c4.601,0,8.33-3.728,8.33-8.33v-22.213c0-4.601-3.728-8.33-8.33-8.33 c-4.601,0-8.33,3.728-8.33,8.33v22.213C194.512,251.332,198.242,255.06,202.842,255.06z" /> <path style="fill:#FFFFFF;" d="M202.842,105.125c4.601,0,8.33-3.728,8.33-8.33V74.583c0-4.601-3.728-8.33-8.33-8.33 c-4.601,0-8.33,3.728-8.33,8.33v22.213C194.512,101.397,198.242,105.125,202.842,105.125z" /> <path style="fill:#FFFFFF;" d="M103.996,81.802h22.213c4.6,0,8.33-3.728,8.33-8.33c0-4.601-3.729-8.33-8.33-8.33h-22.213 c-4.6,0-8.33,3.728-8.33,8.33C95.666,78.074,99.396,81.802,103.996,81.802z" /> <path style="fill:#FFFFFF;" d="M126.302,239.605h-22.213c-4.6,0-8.33,3.728-8.33,8.33s3.729,8.33,8.33,8.33h22.213 c4.6,0,8.33-3.728,8.33-8.33C134.632,243.334,130.902,239.605,126.302,239.605z" /> <path style="fill:#FFFFFF;" d="M176.28,239.605h-22.213c-4.601,0-8.33,3.728-8.33,8.33s3.728,8.33,8.33,8.33h22.213 c4.601,0,8.33-3.728,8.33-8.33C184.61,243.334,180.882,239.605,176.28,239.605z" /> <path style="fill:#FFFFFF;" d="M153.974,81.802h22.213c4.601,0,8.33-3.728,8.33-8.33c0-4.601-3.728-8.33-8.33-8.33h-22.213 c-4.601,0-8.33,3.728-8.33,8.33C145.645,78.074,149.374,81.802,153.974,81.802z" /> <path style="fill:#FFFFFF;" d="M96.427,169.033h22.213c4.6,0,8.33-3.728,8.33-8.33c0-4.601-3.729-8.33-8.33-8.33H96.427 c-4.6,0-8.33,3.728-8.33,8.33C88.097,165.305,91.827,169.033,96.427,169.033z" /> <path style="fill:#FFFFFF;" d="M146.405,169.033h22.213c4.6,0,8.33-3.728,8.33-8.33c0-4.601-3.729-8.33-8.33-8.33h-22.213 c-4.6,0-8.33,3.728-8.33,8.33C138.076,165.305,141.805,169.033,146.405,169.033z" /> <path style="fill:#FFFFFF;" d="M331.862,81.802h22.213c4.601,0,8.33-3.728,8.33-8.33c0-4.601-3.728-8.33-8.33-8.33h-22.213 c-4.6,0-8.33,3.728-8.33,8.33C323.532,78.074,327.26,81.802,331.862,81.802z" /> <path style="fill:#FFFFFF;" d="M381.84,81.802h22.213c4.601,0,8.33-3.728,8.33-8.33c0-4.601-3.728-8.33-8.33-8.33H381.84 c-4.6,0-8.33,3.728-8.33,8.33C373.51,78.074,377.238,81.802,381.84,81.802z" /> <path style="fill:#FFFFFF;" d="M380.449,256.264h22.213c4.601,0,8.33-3.728,8.33-8.33s-3.728-8.33-8.33-8.33h-22.213 c-4.601,0-8.33,3.728-8.33,8.33C372.12,252.536,375.848,256.264,380.449,256.264z" /> <path style="fill:#FFFFFF;" d="M413.306,150.293c0-4.601-3.728-8.33-8.33-8.33c-4.601,0-8.33,3.728-8.33,8.33v22.213 c0,4.601,3.728,8.33,8.33,8.33c4.601,0,8.33-3.728,8.33-8.33V150.293z" /> <path style="fill:#FFFFFF;" d="M413.306,100.314c0-4.601-3.728-8.33-8.33-8.33c-4.601,0-8.33,3.728-8.33,8.33v22.213 c0,4.601,3.728,8.33,8.33,8.33c4.601,0,8.33-3.728,8.33-8.33V100.314z" /> <path style="fill:#FFFFFF;" d="M404.976,191.941c-4.601,0-8.33,3.728-8.33,8.33v22.213c0,4.601,3.728,8.33,8.33,8.33 c4.601,0,8.33-3.728,8.33-8.33v-22.213C413.306,195.671,409.577,191.941,404.976,191.941z" /> <path style="fill:#FFFFFF;" d="M330.471,256.264h22.213c4.601,0,8.33-3.728,8.33-8.33s-3.728-8.33-8.33-8.33h-22.213 c-4.601,0-8.33,3.728-8.33,8.33C322.141,252.536,325.87,256.264,330.471,256.264z" /> <path style="fill:#FFFFFF;" d="M305.02,203.971c4.601,0,8.33-3.728,8.33-8.33v-22.213c0-4.601-3.728-8.33-8.33-8.33 s-8.33,3.728-8.33,8.33v22.213C296.69,200.243,300.418,203.971,305.02,203.971z" /> <path style="fill:#FFFFFF;" d="M305.02,253.95c4.601,0,8.33-3.728,8.33-8.33v-22.213c0-4.601-3.728-8.33-8.33-8.33 s-8.33,3.728-8.33,8.33v22.213C296.69,250.221,300.418,253.95,305.02,253.95z" /> <path style="fill:#FFFFFF;" d="M305.02,153.993c4.601,0,8.33-3.728,8.33-8.33v-22.213c0-4.601-3.728-8.33-8.33-8.33 s-8.33,3.728-8.33,8.33v22.213C296.69,150.265,300.418,153.993,305.02,153.993z" /> <path style="fill:#FFFFFF;" d="M305.02,104.015c4.601,0,8.33-3.728,8.33-8.33V73.473c0-4.601-3.728-8.33-8.33-8.33 s-8.33,3.728-8.33,8.33v22.213C296.69,100.286,300.418,104.015,305.02,104.015z" /> <path style="fill:#FFFFFF;" d="M254.486,135.692c4.601,0,8.33-3.728,8.33-8.33v-1.111c0-4.6-3.728-8.33-8.33-8.33 c-4.6,0-8.329,3.729-8.329,8.33v1.111C246.156,131.963,249.886,135.692,254.486,135.692z" /> <path style="fill:#FFFFFF;" d="M254.486,204.551c4.601,0,8.33-3.728,8.33-8.33v-1.111c0-4.601-3.728-8.33-8.33-8.33 c-4.6,0-8.329,3.728-8.329,8.33v1.111C246.156,200.822,249.886,204.551,254.486,204.551z" /> </g> <g> <path style="fill:#C6281C;" d="M305.02,292.915h106.827c4.599,0,8.33-3.728,8.33-8.33c0-4.6-3.731-8.33-8.33-8.33H305.02 c-4.601,0-8.33,3.728-8.33,8.33C296.69,289.187,300.418,292.915,305.02,292.915z" /> <path style="fill:#C6281C;" d="M305.02,321.791h106.827c4.599,0,8.33-3.728,8.33-8.33c0-4.6-3.731-8.33-8.33-8.33H305.02 c-4.601,0-8.33,3.729-8.33,8.33C296.69,318.063,300.418,321.791,305.02,321.791z" /> <path style="fill:#C6281C;" d="M103.996,276.256c-4.6,0-8.33,3.728-8.33,8.33c0,4.601,3.729,8.33,8.33,8.33h106.825 c4.6,0,8.33-3.728,8.33-8.33c0-4.6-3.729-8.33-8.33-8.33H103.996z" /> <path style="fill:#C6281C;" d="M210.822,305.132H103.996c-4.6,0-8.33,3.729-8.33,8.33c0,4.601,3.729,8.33,8.33,8.33h106.825 c4.6,0,8.33-3.728,8.33-8.33C219.152,308.862,215.421,305.132,210.822,305.132z" /> </g> </g></svg><svg fill="#000000" height="800" width="800" version="1.1" id="Layer_1" xmlns="http://www.w3.org/2000/svg" xmlns:xlink="http://www.w3.org/1999/xlink" viewBox="0 0 299.758 299.758" xml:space="preserve" y="3712"><g>	<g>		<g>			<path d="M149.879,103.649c11.658,0,21.105-9.849,21.105-21.976c0-12.127-9.447-21.976-21.105-21.976     c-11.658,0-21.105,9.849-21.105,21.976C128.774,93.8,138.221,103.649,149.879,103.649z M149.879,69.747     c6.097,0,11.055,5.36,11.055,11.926s-4.958,11.926-11.055,11.926c-6.097,0-11.055-5.36-11.055-11.926     S143.782,69.747,149.879,69.747z" />			<path d="M182.106,103.582c2.747,0,5.025-2.278,5.025-5.025v-2.68l13.534,7.169c0.737,0.402,1.541,0.603,2.345,0.603     c1.809,0,3.551-1.005,4.422-2.814c1.34-2.412,0.402-5.494-2.077-6.767l-12.462-6.566l12.462-6.566     c1.675-0.871,2.68-2.546,2.68-4.422V64.655c0-2.747-2.278-5.025-5.025-5.025h-20.904c-2.747,0-5.025,2.278-5.025,5.025v33.902     C177.081,101.304,179.359,103.582,182.106,103.582z M187.064,69.747h10.854v3.819l-10.854,5.695V69.747z" />			<path d="M95.073,95.542c3.685,5.427,9.983,8.442,16.549,8.442c2.613,0,5.293-0.536,7.906-1.608     c2.546-1.005,3.819-3.886,2.814-6.499c-1.005-2.546-3.886-3.819-6.499-2.814c-4.556,1.876-9.849,0.536-12.395-3.082     c-2.948-5.092-2.948-11.39-0.067-15.678c2.345-3.484,6.7-5.829,11.189-3.484c2.412,1.34,5.494,0.402,6.767-2.077     c1.34-2.412,0.402-5.494-2.077-6.767c-8.375-4.422-18.559-1.608-24.187,6.7c-5.025,7.504-5.092,18.224-0.134,26.599     C94.939,95.341,95.006,95.475,95.073,95.542z" />			<path d="M219.09,103.649h21.708c2.747,0,5.025-2.278,5.025-5.025s-2.211-5.025-5.025-5.025h-16.683v-6.901h6.231     c2.747,0,5.025-2.278,5.025-5.025s-2.278-5.025-5.025-5.025h-6.231v-6.901h16.683c2.747,0,5.025-2.278,5.025-5.025     s-2.278-5.025-5.025-5.025H219.09c-2.747,0-5.025,2.278-5.025,5.025v33.902C214.065,101.371,216.343,103.649,219.09,103.649z" />			<path d="M53.131,98.624c0,2.747,2.278,5.025,5.025,5.025h21.708c1.809,0,3.551-1.005,4.422-2.613     c0.871-1.608,0.804-3.551-0.201-5.092l-16.75-26.13h12.529c2.747,0,5.025-2.278,5.025-5.025c0-2.747-2.278-5.025-5.025-5.025     H58.156c-1.876,0-3.551,1.005-4.422,2.613c-0.871,1.608-0.804,3.551,0.201,5.092l16.75,26.13H58.156     C55.409,93.599,53.131,95.877,53.131,98.624z" />			<path d="M0,37.654v224.45h299.758V37.654H0z M32.16,252.054H10.05V194.3h22.11V252.054z M32.16,184.25H10.05v-57.754h22.11     V184.25z M149.678,252.054H42.277V194.3h107.401V252.054z M149.745,184.25H42.277v-57.754h107.468V184.25z M181.838,252.054     h-22.11V194.3h22.11V252.054z M181.838,184.25h-22.11v-57.754h22.11V184.25z M213.998,252.054h-22.11V194.3h22.11V252.054z      M213.998,184.25h-22.11v-57.754h22.11V184.25z M289.708,252.054h-65.593V194.3h65.593V252.054z M289.708,184.25h-65.593v-57.754     h65.593V184.25z M289.708,116.446H10.05V47.704h279.658V116.446z" />			<polygon points="278.05,146.327 271.149,139.024 251.183,157.851 242.607,150.012 235.84,157.382 251.317,171.586    " />			<polygon points="248.503,239.323 256.878,230.479 265.32,239.323 272.623,232.422 263.846,223.176 272.623,213.93      265.32,207.029 256.878,215.873 248.503,207.029 241.2,213.93 249.977,223.176 241.2,232.422    " />		</g>	</g></g></svg><svg fill="#000000" height="800" width="800" version="1.1" id="Layer_1" xmlns="http://www.w3.org/2000/svg" xmlns:xlink="http://www.w3.org/1999/xlink" viewBox="0 0 299.758 299.758" xml:space="preserve" y="4512"><g>	<g>		<g>			<path d="M149.879,103.649c11.658,0,21.105-9.849,21.105-21.976c0-12.127-9.447-21.976-21.105-21.976     c-11.658,0-21.105,9.849-21.105,21.976C128.774,93.8,138.221,103.649,149.879,103.649z M149.879,69.747     c6.097,0,11.055,5.36,11.055,11.926s-4.958,11.926-11.055,11.926c-6.097,0-11.055-5.36-11.055-11.926     S143.782,69.747,149.879,69.747z" />			<path d="M182.106,103.582c2.747,0,5.025-2.278,5.025-5.025v-2.68l13.534,7.169c0.737,0.402,1.541,0.603,2.345,0.603     c1.809,0,3.551-1.005,4.422-2.814c1.34-2.412,0.402-5.494-2.077-6.767l-12.462-6.566l12.462-6.566     c1.675-0.871,2.68-2.546,2.68-4.422V64.655c0-2.747-2.278-5.025-5.025-5.025h-20.904c-2.747,0-5.025,2.278-5.025,5.025v33.902     C177.081,101.304,179.359,103.582,182.106,103.582z M187.064,69.747h10.854v3.819l-10.854,5.695V69.747z" />			<path d="M95.073,95.542c3.685,5.427,9.983,8.442,16.549,8.442c2.613,0,5.293-0.536,7.906-1.608     c2.546-1.005,3.819-3.886,2.814-6.499c-1.005-2.546-3.886-3.819-6.499-2.814c-4.556,1.876-9.849,0.536-12.395-3.082     c-2.948-5.092-2.948-11.39-0.067-15.678c2.345-3.484,6.7-5.829,11.189-3.484c2.412,1.34,5.494,0.402,6.767-2.077     c1.34-2.412,0.402-5.494-2.077-6.767c-8.375-4.422-18.559-1.608-24.187,6.7c-5.025,7.504-5.092,18.224-0.134,26.599     C94.939,95.341,95.006,95.475,95.073,95.542z" />			<path d="M219.09,103.649h21.708c2.747,0,5.025-2.278,5.025-5.025s-2.211-5.025-5.025-5.025h-16.683v-6.901h6.231     c2.747,0,5.025-2.278,5.025-5.025s-2.278-5.025-5.025-5.025h-6.231v-6.901h16.683c2.747,0,5.025-2.278,5.025-5.025     s-2.278-5.025-5.025-5.025H219.09c-2.747,0-5.025,2.278-5.025,5.025v33.902C214.065,101.371,216.343,103.649,219.09,103.649z" />			<path d="M53.131,98.624c0,2.747,2.278,5.025,5.025,5.025h21.708c1.809,0,3.551-1.005,4.422-2.613     c0.871-1.608,0.804-3.551-0.201-5.092l-16.75-26.13h12.529c2.747,0,5.025-2.278,5.025-5.025c0-2.747-2.278-5.025-5.025-5.025     H58.156c-1.876,0-3.551,1.005-4.422,2.613c-0.871,1.608-0.804,3.551,0.201,5.092l16.75,26.13H58.156     C55.409,93.599,53.131,95.877,53.131,98.624z" />			<path d="M0,37.654v224.45h299.758V37.654H0z M32.16,252.054H10.05V194.3h22.11V252.054z M32.16,184.25H10.05v-57.754h22.11     V184.25z M149.678,252.054H42.277V194.3h107.401V252.054z M149.745,184.25H42.277v-57.754h107.468V184.25z M181.838,252.054     h-22.11V194.3h22.11V252.054z M181.838,184.25h-22.11v-57.754h22.11V184.25z M213.998,252.054h-22.11V194.3h22.11V252.054z      M213.998,184.25h-22.11v-57.754h22.11V184.25z M289.708,252.054h-65.593V194.3h65.593V252.054z M289.708,184.25h-65.593v-57.754     h65.593V184.25z M289.708,116.446H10.05V47.704h279.658V116.446z" />			<polygon points="278.05,146.327 271.149,139.024 251.183,157.851 242.607,150.012 235.84,157.382 251.317,171.586    " />			<polygon points="248.503,239.323 256.878,230.479 265.32,239.323 272.623,232.422 263.846,223.176 272.623,213.93      265.32,207.029 256.878,215.873 248.503,207.029 241.2,213.93 249.977,223.176 241.2,232.422    " />		</g>	</g></g></svg><svg fill="#000000" version="1.1" id="Capa_1" xmlns="http://www.w3.org/2000/svg" xmlns:xlink="http://www.w3.org/1999/xlink" viewBox="0 0 460 460" xml:space="preserve" width="800" height="800" transform="rotate(45)" y="5312"><g id="SVGRepo_bgCarrier" stroke-width="0" /><g id="SVGRepo_tracerCarrier" stroke-linecap="round" stroke-linejoin="round" /><g id="SVGRepo_iconCarrier"> <g id="XMLID_498_"> <rect id="XMLID_500_" x="70" y="78" width="85" height="174" /> <path id="XMLID_501_" d="M0,8v314h30v130h29v-50h342v50h29V322h30V8H0z M275,48h145v234H275V48z M215,120h30v30h-30V120z M215,180 h30v30h-30V180z M40,48h145v234H40V48z M401,373H59v-51h342V373z" /> <rect id="XMLID_508_" x="305" y="78" width="85" height="174" /> </g> </g></svg></svg>